
<!-- Generator: visioncortex VTracer 0.6.4 -->
<svg version="1.1" xmlns="http://www.w3.org/2000/svg" viewBox="0 0 1280 129" preserveAspectRatio="xMidYMid meet">
<path d="M0 0 C72.705 18.383 146.249 31.519 220.99 38.009 C221.86 38.086 222.731 38.164 223.628 38.243 C255.498 41.027 287.427 42.107 319.409 42.02 C323.646 42.009 327.882 42.015 332.118 42.027 C363.66 42.099 395.131 40.834 426.552 38.009 C427.483 37.927 428.414 37.845 429.373 37.761 C494.956 31.925 561.612 20.969 624.158 -0.061 C627.927 -1.241 627.927 -1.241 630.927 -1.241 C630.927 26.479 630.927 54.199 630.927 82.759 C208.527 82.759 -213.873 82.759 -649.073 82.759 C-649.073 54.709 -649.073 26.659 -649.073 -2.241 C-620.603 -11.73 -620.603 -11.73 -607.26 -15.178 C-606.475 -15.383 -605.69 -15.587 -604.881 -15.798 C-545.818 -31.126 -485.087 -39.861 -424.255 -44.086 C-422.136 -44.236 -420.018 -44.395 -417.899 -44.557 C-325.349 -51.497 -230.798 -45.125 0 0 Z " fill="#FFFFFF" transform="translate(649.0727081298828,46.24066162109375)"/>
</svg>